<?xml version="1.0" encoding="iso-8859-1"?>
<!-- Generator: Adobe Illustrator 19.0.0, SVG Export Plug-In . SVG Version: 6.00 Build 0)  -->
<svg version="1.1" id="Capa_1" xmlns="http://www.w3.org/2000/svg" xmlns:xlink="http://www.w3.org/1999/xlink" x="0px" y="0px"
	 viewBox="0 0 511.998 511.998" style="enable-background:new 0 0 511.998 511.998;" xml:space="preserve">
<g>
	<path style="fill:#735458;" d="M443.056,53.82l-26.404-26.423c-6.262-6.267-6.262-16.426,0-22.693l0,0
		c6.267-6.272,16.43-6.272,22.697,0l26.393,26.413L443.056,53.82z"/>
	<path style="fill:#735458;" d="M407.323,92.235l-27.73-27.75c-6.262-6.267-6.262-16.426,0-22.693l0,0
		c6.267-6.272,16.43-6.272,22.697,0l27.719,27.739L407.323,92.235z"/>
	<path style="fill:#735458;" d="M357.283,146.246c-1.918,0-3.836-0.732-5.3-2.197l-29.432-29.455c-2.927-2.929-2.926-7.678,0-10.606
		c2.927-2.928,7.672-2.929,10.6,0.001l29.432,29.455c2.927,2.929,2.926,7.678,0,10.606
		C361.119,145.513,359.201,146.246,357.283,146.246z"/>
	<path style="fill:#735458;" d="M327.446,176.107c-1.918,0-3.837-0.732-5.3-2.197l-29.432-29.456
		c-2.927-2.929-2.926-7.678,0.001-10.606c2.927-2.928,7.672-2.929,10.599,0.001l29.432,29.456c2.927,2.929,2.926,7.678-0.001,10.606
		C331.281,175.375,329.364,176.107,327.446,176.107z"/>
	<path style="fill:#735458;" d="M297.608,205.968c-1.918,0-3.837-0.732-5.3-2.197l-29.432-29.456
		c-2.927-2.929-2.926-7.678,0.001-10.606c2.927-2.928,7.672-2.929,10.599,0.001l29.432,29.456c2.927,2.929,2.926,7.678-0.001,10.606
		C301.444,205.236,299.527,205.968,297.608,205.968z"/>
	<path style="fill:#735458;" d="M267.771,235.83c-1.918,0-3.837-0.732-5.3-2.197l-29.432-29.456
		c-2.927-2.929-2.926-7.678,0.001-10.606c2.927-2.928,7.672-2.929,10.599,0.001l29.432,29.456c2.927,2.929,2.926,7.678-0.001,10.606
		C271.607,235.097,269.69,235.83,267.771,235.83z"/>
</g>
<path style="fill:#A66856;" d="M506.826,57.659l-94.535,94.62l-10.603,10.6l-19.767,19.79l-40.432,40.46l-19.237,19.26
	l-40.442,40.47l-15.409,15.43c-15.19,15.2-20.816,37.34-15.29,58.12c11.492,43.25,0.32,91.34-33.517,125.2
	c-50.525,50.56-115.501,33.34-166.016-17.23c-50.525-50.56-67.734-115.59-17.218-166.15c33.837-33.86,81.884-45.05,125.104-33.54
	c20.756,5.53,42.891-0.1,58.08-15.31l15.399-15.42l10.603-10.6l19.237-19.26l10.603-10.6l19.237-19.26l29.84-29.86l10.593-10.61
	l19.776-19.78l10.593-10.61l94.545-94.62c1.559-1.56,4.087-1.56,5.646,0l43.21,43.25C508.385,53.569,508.385,56.099,506.826,57.659z
	"/>
<path style="fill:#8F5040;" d="M506.828,52.007c1.561,1.562,1.561,4.095,0,5.657l-75.411,75.466L266.405,298.289
	c-15.19,15.195-20.813,37.344-15.293,58.123c11.493,43.248,0.319,91.336-33.521,125.199
	c-31.297,31.338-68.155,36.623-103.685,24.096c25.509,1.185,50.699-7.902,73.047-30.277c33.841-33.862,45.014-81.951,33.521-125.199
	c-5.52-20.779,0.103-42.928,15.293-58.123l177.205-177.439l78.206-78.325L506.828,52.007z"/>
<path style="fill:#FF803C;" d="M506.828,57.664l-75.411,75.466l-18.445-18.461l-30.411-30.442l75.401-75.465
	c1.561-1.562,4.092-1.562,5.653,0l27.564,27.582l15.65,15.663C508.389,53.569,508.389,56.102,506.828,57.664z"/>
<path style="fill:#FFDEA9;" d="M160.441,419.634l-64.15-64.202c-1.561-1.562-1.561-4.094,0-5.656l17.033-17.047
	c1.561-1.562,4.092-1.562,5.653,0l64.15,64.202c1.561,1.562,1.561,4.094,0,5.656l-17.033,17.047
	C164.533,421.196,162.002,421.196,160.441,419.634z"/>
<path style="fill:#FFBF7B;" d="M160.441,419.631l-18.18-18.215l22.69-22.7l18.183,18.218c1.559,1.563,1.559,4.094-0.002,5.655
	l-17.036,17.044C164.534,421.196,162.002,421.195,160.441,419.631z"/>
<path style="fill:#F76328;" d="M506.828,57.664l-75.411,75.466l-18.445-18.461l78.206-78.325l15.65,15.663
	C508.389,53.569,508.389,56.102,506.828,57.664z"/>
<g>
	<circle style="fill:#735458;" cx="465.129" cy="50.805" r="7.5"/>
	<circle style="fill:#735458;" cx="428.099" cy="87.869" r="7.5"/>
</g>
<g>
	<path style="fill:#FFBF7B;" d="M381.922,182.669l-10.593,10.6c-0.01,0-0.02-0.01-0.03-0.02l-48.837-48.87l10.593-10.61l0.01,0.01
		l48.837,48.86C381.912,182.649,381.922,182.659,381.922,182.669z"/>
	<path style="fill:#FFBF7B;" d="M412.291,152.279l-10.603,10.6c-0.01-0.01-0.01-0.01-0.02-0.02l-48.837-48.87l10.593-10.61
		l48.847,48.88C412.281,152.269,412.281,152.269,412.291,152.279z"/>
	<path style="fill:#FFBF7B;" d="M352.082,212.53l-10.593,10.6c-0.01-0.01-0.01-0.01-0.02-0.02l-48.837-48.86l-0.01-0.01
		l10.603-10.61l0.01,0.01l48.827,48.87C352.072,212.52,352.072,212.52,352.082,212.53z"/>
	<path style="fill:#FFBF7B;" d="M322.253,242.39L311.65,253c-0.01-0.01-0.01-0.01-0.02-0.02l-48.827-48.86
		c-0.01-0.01-0.01-0.01-0.02-0.02l10.603-10.6l0.01,0.01l48.837,48.86C322.243,242.38,322.243,242.38,322.253,242.39z"/>
	<path style="fill:#FFBF7B;" d="M292.413,272.25l-10.603,10.61l-48.847-48.88c-0.01-0.01-0.01-0.01-0.02-0.02l10.603-10.6
		c0.01,0.01,0.01,0.01,0.02,0.02l48.837,48.86L292.413,272.25z"/>
</g>
<g>
</g>
<g>
</g>
<g>
</g>
<g>
</g>
<g>
</g>
<g>
</g>
<g>
</g>
<g>
</g>
<g>
</g>
<g>
</g>
<g>
</g>
<g>
</g>
<g>
</g>
<g>
</g>
<g>
</g>
</svg>
