<?xml version="1.0" encoding="iso-8859-1"?>
<!-- Generator: Adobe Illustrator 22.1.0, SVG Export Plug-In . SVG Version: 6.00 Build 0)  -->
<svg xmlns="http://www.w3.org/2000/svg" xmlns:xlink="http://www.w3.org/1999/xlink" version="1.1" id="Layer_1_1_" x="0px" y="0px" viewBox="0 0 64 64" style="enable-background:new 0 0 64 64;" xml:space="preserve" width="512" height="512">
<linearGradient id="SVGID_1_" gradientUnits="userSpaceOnUse" x1="32" y1="1" x2="32" y2="63" gradientTransform="matrix(1 0 0 -1 0 64)">
	<stop offset="0" style="stop-color:#9F2FFF"/>
	<stop offset="1" style="stop-color:#0BB1D3"/>
</linearGradient>
<path style="fill:url(#SVGID_1_);" d="M38,27c0,0.552-0.448,1-1,1s-1-0.448-1-1s0.448-1,1-1S38,26.448,38,27z M27,26  c-0.552,0-1,0.448-1,1s0.448,1,1,1s1-0.448,1-1S27.552,26,27,26z M33,25h-2v2h2V25z M32,35c-1.103,0-2-0.897-2-2h-2  c0,2.206,1.794,4,4,4s4-1.794,4-4h-2C34,34.103,33.103,35,32,35z M53,63H11V51.526c0-2.321,1.165-4.451,2.999-5.737l0.087-0.195  C16.678,39.112,18,32.249,18,25.229V23c0-1.786,0.349-3.49,0.962-5.062c-0.311-1.46-1.434-7.975,2.137-12.547  C23.373,2.477,27.041,1,32,1s8.627,1.477,10.901,4.391c3.571,4.573,2.448,11.087,2.137,12.547C45.651,19.51,46,21.214,46,23v2.229  c0,7.02,1.322,13.883,3.928,20.399l0.079,0.166C51.837,47.081,53,49.207,53,51.526V63z M47.374,46.718l-8.85-2.529l-2.369,4.739  l2.133,3.199L32,58.414l-5.758-5.758C25.078,52.882,23.893,53,22.705,53h-1.263c-0.132,0.288-0.284,0.568-0.462,0.834  C20.338,54.795,20,55.913,20,57.067v0.104c0,1.424,0.513,2.767,1.441,3.829h10.474l0.041-0.007  c7.278-1.213,13.992-4.869,18.97-10.307C50.605,48.821,49.235,47.25,47.374,46.718z M39.365,61h3.194  c0.537-0.614,0.936-1.319,1.174-2.083C42.327,59.709,40.868,60.407,39.365,61z M29.088,9.309C30.028,9.109,31.001,9,32,9  s1.972,0.109,2.912,0.309C34.598,7.988,33.416,7,32,7S29.402,7.988,29.088,9.309z M38.799,10.772  c-0.484-0.831-1.155-1.664-2.075-2.339c0.159,0.476,0.263,0.976,0.27,1.504C37.617,10.176,38.222,10.45,38.799,10.772z   M36.495,5.972l1.271-1.975C36.414,3.44,34.82,3.122,33,3.036v2.02C34.356,5.168,35.512,5.497,36.495,5.972z M31,3.037  c-1.82,0.086-3.414,0.404-4.766,0.96l1.271,1.975C28.488,5.497,29.644,5.168,31,5.057V3.037z M25.201,10.772  c0.577-0.322,1.182-0.596,1.805-0.835c0.007-0.527,0.111-1.027,0.27-1.504C26.356,9.108,25.685,9.941,25.201,10.772z M20,23v1.556  c0.31-0.181,0.644-0.322,1-0.414v-1.769C21,18.859,23.859,16,27.373,16c0.09,0,0.178,0.016,0.268,0.02L32,12.75l4.359,3.27  c0.09-0.004,0.177-0.02,0.268-0.02C40.141,16,43,18.859,43,22.373v1.769c0.356,0.093,0.69,0.233,1,0.414V23c0-6.617-5.383-12-12-12  S20,16.383,20,23z M41,31v-5c0-2.411-1.962-4.373-4.373-4.373c-0.867,0-1.705,0.254-2.426,0.734L32,23.829l-2.201-1.467  c-0.721-0.48-1.559-0.734-2.426-0.734C24.962,21.627,23,23.589,23,26v5c0,4.962,4.038,9,9,9S41,35.962,41,31z M21,26.278  c-0.595,0.347-1,0.985-1,1.722s0.405,1.375,1,1.722V26.278z M27.373,18c-2.009,0-3.688,1.369-4.198,3.218  c1.123-0.987,2.59-1.591,4.198-1.591c1.263,0,2.485,0.37,3.535,1.07L32,21.425l1.092-0.728c1.05-0.7,2.272-1.07,3.535-1.07  c1.609,0,3.076,0.604,4.198,1.591C40.315,19.369,38.636,18,36.627,18c-0.867,0-1.705,0.254-2.426,0.734L32,20.202l-2.201-1.467  C29.078,18.254,28.24,18,27.373,18z M30.908,17.07L32,17.798l1.092-0.728c0.244-0.163,0.5-0.304,0.761-0.431L32,15.25l-1.853,1.39  C30.408,16.766,30.664,16.907,30.908,17.07z M43,29.722c0.595-0.347,1-0.985,1-1.722s-0.405-1.375-1-1.722V29.722z M16.568,44.655  L25,42.246v-2.767c-2.231-1.845-3.715-4.554-3.956-7.607c-0.501-0.124-0.964-0.338-1.37-0.631  C19.19,35.818,18.15,40.305,16.568,44.655z M27,42.764L29.618,48h4.764L37,42.764v-1.978C35.498,41.556,33.801,42,32,42  s-3.498-0.444-5-1.214V42.764z M28.287,51.873L32,55.586l3.713-3.713L34.465,50h-4.93L28.287,51.873z M44.327,31.24  c-0.407,0.293-0.87,0.508-1.371,0.632c-0.241,3.053-1.725,5.762-3.956,7.607v2.767l8.434,2.41  C45.848,40.29,44.81,35.807,44.327,31.24z M43.406,14.911c0.08-1.405,0.025-3.157-0.44-4.885l-1.705,1.279  c0.283,0.698,0.464,1.309,0.568,1.741C42.409,13.618,42.932,14.245,43.406,14.911z M39.533,4.948L38.186,7.04  c0.915,0.738,1.625,1.595,2.158,2.452l1.884-1.413c-0.254-0.508-0.548-1.003-0.909-1.465C40.816,5.971,40.216,5.42,39.533,4.948z   M21.771,8.078l1.885,1.414c0.533-0.857,1.243-1.714,2.158-2.452l-1.347-2.092c-0.685,0.474-1.288,1.027-1.792,1.673  C22.316,7.081,22.024,7.573,21.771,8.078z M20.59,14.916c0.474-0.668,0.999-1.297,1.581-1.871c0.105-0.432,0.285-1.042,0.568-1.741  l-1.708-1.281C20.563,11.756,20.509,13.511,20.59,14.916z M13,51.526V54h5.642c0.188-0.441,0.403-0.871,0.673-1.275  C19.763,52.053,20,51.27,20,50.462V48h2v2.462c0,0.181-0.024,0.359-0.039,0.538h0.744c1.367,0,2.729-0.17,4.05-0.504l0.013,0.051  l1.079-1.618l-2.369-4.739l-8.85,2.529C14.491,47.328,13,49.305,13,51.526z M18,57.171v-0.104c0-0.359,0.03-0.715,0.078-1.067H13v2  h5.045C18.017,57.726,18,57.45,18,57.171z M13,61h6.003c-0.181-0.322-0.339-0.656-0.472-1H13V61z M51,61v-7.518  c-1.549,1.507-3.228,2.868-5.018,4.06c-0.057,1.23-0.394,2.406-0.985,3.457L51,61L51,61z M33,51h-2v2h2V51z"/>
</svg>
